<?xml version="1.0" encoding="UTF-8" standalone="no" ?>
<!DOCTYPE svg PUBLIC "-//W3C//DTD SVG 1.1//EN" "http://www.w3.org/Graphics/SVG/1.1/DTD/svg11.dtd">
<svg xmlns="http://www.w3.org/2000/svg" xmlns:xlink="http://www.w3.org/1999/xlink" version="1.1" width="24" height="24.2488" viewBox="125.72308729437073 94.36486023299227 15.200139249866002 15.357714026756279" xml:space="preserve">
<desc>Created with Fabric.js 5.3.0</desc>
<defs>
</defs>
<g transform="matrix(0.03 0 0 0.03 133.3231569193 102.0437172464)" id="ZBZ0mU93gDzKaEHproBJE"  >
<filter id="SVGID_47" y="-24.73828911%" height="149.47657822%" x="-24.79086864%" width="149.58173728%" >
	<feGaussianBlur in="SourceAlpha" stdDeviation="4.252"></feGaussianBlur>
	<feOffset dx="14.173" dy="14.173" result="oBlur" ></feOffset>
	<feFlood flood-color="rgb(0,0,0)" flood-opacity="1"/>
	<feComposite in2="oBlur" operator="in" />
	<feMerge>
		<feMergeNode></feMergeNode>
		<feMergeNode in="SourceGraphic"></feMergeNode>
	</feMerge>
</filter>
<path style="stroke: none; stroke-width: 1; stroke-dasharray: none; stroke-linecap: butt; stroke-dashoffset: 0; stroke-linejoin: miter; stroke-miterlimit: 4; fill: rgb(223,193,63); fill-rule: nonzero; opacity: 1;filter: url(#SVGID_47);" vector-effect="non-scaling-stroke"  transform=" translate(-0.0000040681, -0.0000037793)" d="M -229.02525 -239.29523 C -274.01225 -111.06523000000001 -112.95925 20.376770000000022 58.38674999999998 123.53077000000002 C 53.74174999999998 137.29777 52.80174999999998 151.15877 54.99274999999998 164.16577 C 59.43274999999998 190.52077 75.96674999999998 213.16277000000002 97.85274999999999 226.59077000000002 C 119.73674999999999 240.01877000000002 147.62875 244.16077 173.49775 232.35577 C 199.36775 220.55177 222.18775 193.43277 236.23475 147.70177 L 218.36974999999998 142.21377 C 205.36974999999998 184.53177 185.56374999999997 206.30777 165.73975 215.35377 C 145.91475 224.40077 125.04974999999999 221.35177 107.62374999999999 210.66076999999999 C 90.19874999999999 199.97077 76.87374999999999 181.56577 73.41874999999999 161.06077 C 69.96374999999999 140.55377 75.65074999999999 117.74277 98.09574999999998 95.84276999999999 C 118.83874999999998 75.60276999999999 130.16375 54.227769999999985 128.52974999999998 34.602769999999985 L 109.90774999999998 36.154769999999985 C 110.64774999999997 45.044769999999986 105.55774999999998 58.91476999999999 93.22374999999998 73.64076999999997 C -34.052250000000015 -26.743230000000025 -182.27125 -128.92123000000004 -229.02525000000003 -239.29523 z M 229.02475 -239.29523 C 195.23075 -159.51323000000002 108.41775000000001 -84.01323 14.820750000000004 -10.377229999999997 C 34.31275000000001 5.500770000000003 54.380750000000006 21.244770000000003 74.01575 34.63477 C 184.77175 -50.201229999999995 261.89374999999995 -145.60823 229.02575 -239.29523 z M -128.52925 34.60277 C -130.16324999999998 54.22877 -118.83924999999999 75.60276999999999 -98.09525 95.84277 C -75.65025 117.74277000000001 -69.96324999999999 140.55477000000002 -73.41825 161.06077 C -76.87325 181.56677 -90.19825 199.97077 -107.62425 210.66076999999999 C -125.04925 221.35277 -145.91425 224.40077 -165.73925 215.35476999999997 C -185.56425 206.30876999999998 -205.37125 184.53276999999997 -218.36925 142.21477 L -236.23425 147.70277 C -222.18825 193.43276999999998 -199.36725 220.55276999999998 -173.49825 232.35676999999998 C -147.62825 244.16177 -119.73525000000001 240.01977 -97.85025000000002 226.59177 C -75.96525000000001 213.16377 -59.430250000000015 190.52177 -54.99025000000002 164.16577 C -52.80025000000002 151.16077 -53.74025000000002 137.30277 -58.38325000000002 123.53777000000001 C -44.397250000000014 115.11777000000001 -30.478250000000017 106.51577 -16.735250000000015 97.73477000000001 L -73.70225000000002 58.34777000000001 C -80.25225000000002 63.45077000000001 -86.76525000000002 68.54777000000001 -93.22225000000002 73.64077 C -105.55925000000002 58.91677 -110.64925000000002 45.04677 -109.90925000000001 36.15677 L -128.53125 34.60277 z M -110.42925 108.21677 C -136.52925 116.81676999999999 -172.51625 144.47177 -187.53325 168.54077 C -182.58525 177.17077 -177.14025 183.76377000000002 -171.48325 188.68077 C -145.63725 179.72777 -111.63325 151.27477 -96.75025 128.42377 C -99.75725 121.82377 -104.20424999999999 115.03777 -110.43025 108.21677 z M 110.43375 108.21677 C 104.20875000000001 115.03877 99.76375 121.82677 96.75375 128.42677 C 111.63974999999999 151.27677 145.64375 179.72677 171.48975000000002 188.68177 C 177.14575000000002 183.76377 182.58975 177.17177 187.53975000000003 168.54176999999999 C 172.52175000000003 144.47177 136.53575000000004 116.81777 110.43475000000002 108.21676999999998 z" stroke-linecap="round" />
</g>
</svg>