<?xml version="1.0" encoding="UTF-8" standalone="no" ?>
<!DOCTYPE svg PUBLIC "-//W3C//DTD SVG 1.1//EN" "http://www.w3.org/Graphics/SVG/1.1/DTD/svg11.dtd">
<svg xmlns="http://www.w3.org/2000/svg" xmlns:xlink="http://www.w3.org/1999/xlink" version="1.1" width="6.101mm" height="5.8646mm" viewBox="69.08069178669022 68.5467928915917 17.29406284214255 16.624191857387146" xml:space="preserve">
<desc>Created with Fabric.js 5.3.0</desc>
<defs>
</defs>
<g transform="matrix(0.0345739863 0 0 0.0345739863 77.7277232078 76.8588888203)" id="Sn6fJM_4xs4-yUf3aufSk"  >
<filter id="SVGID_11" y="-25.01807898%" height="150.03615796%" x="-24.811778959999998%" width="149.62355792%" >
	<feGaussianBlur in="SourceAlpha" stdDeviation="4.252"></feGaussianBlur>
	<feOffset dx="14.173" dy="14.173" result="oBlur" ></feOffset>
	<feFlood flood-color="rgb(0,0,0)" flood-opacity="1"/>
	<feComposite in2="oBlur" operator="in" />
	<feMerge>
		<feMergeNode></feMergeNode>
		<feMergeNode in="SourceGraphic"></feMergeNode>
	</feMerge>
</filter>
<path style="stroke: none; stroke-width: 1; stroke-dasharray: none; stroke-linecap: butt; stroke-dashoffset: 0; stroke-linejoin: miter; stroke-miterlimit: 4; fill: rgb(223,193,63); fill-rule: nonzero; opacity: 1;filter: url(#SVGID_11);" vector-effect="non-scaling-stroke"  transform=" translate(-256.1405, -268.953)" d="M 57.594 43 L 57.594 285.563 L 137.594 316.09299999999996 L 137.594 292 C 115.08999999999999 288.783 92.529 283.367 75.064 265.156 L 88.564 252.219 C 100.714 264.88599999999997 117.59599999999999 269.48199999999997 136.844 272.593 L 110.656 55.03 C 93.3 51.725 75.492 48.1 57.594 43 z M 454.719 43.03 C 389.541 60.422 316.365 43.132 263.499 113.844 L 263.499 322.656 C 283.29400000000004 293.50600000000003 308.942 281.79 334.21900000000005 276.126 C 368.13300000000004 268.52299999999997 400.39900000000006 268.96299999999997 425.71900000000005 248.49999999999997 L 437.46900000000005 263.03 C 406.2130000000001 288.29299999999995 369.21900000000005 287.416 338.31100000000004 294.344 C 309.016 300.90999999999997 284.333 311.974 266.06100000000004 357.531 L 454.7180000000001 285.564 L 454.7180000000001 43.03 z M 128.81 49.28 L 156.217 277.437 L 156.27700000000002 278 L 156.27700000000002 494.906 L 176.217 455.626 L 196.685 493.78099999999995 L 196.685 296.814 L 168.563 57.5 L 128.813 49.28 z M 189.28 73.53 L 214.873 291.312 C 219.048 293.612 223.131 296.272 227.06099999999998 299.375 C 233.51299999999998 304.472 239.47299999999998 310.735 244.81099999999998 318.345 L 244.81099999999998 109.5 C 229.31499999999997 92.025 210.409 81.173 189.279 73.53 z M 20.5 74.376 L 20.5 314.18899999999996 L 26.625 316.43899999999996 L 137.595 357.21899999999994 L 137.595 337.31299999999993 L 39.188 301.1569999999999 L 39.188 74.376 L 20.5 74.376 z M 473.094 74.406 L 473.094 301.156 L 256.156 380.846 L 215.376 365.876 L 215.376 404.15599999999995 C 238.586 412.1859999999999 273.454 410.96899999999994 301.626 401.626 L 301.626 384.063 L 485.65599999999995 316.438 L 491.78099999999995 314.188 L 491.78099999999995 74.407 L 473.09499999999997 74.407 z M 215.37399999999997 313.938 L 215.37399999999997 345.751 L 242.93799999999996 356.28099999999995 C 235.89799999999997 335.43399999999997 226.37299999999996 322.621 215.49999999999997 314.03099999999995 C 215.45999999999998 314.001 215.41599999999997 313.97099999999995 215.37499999999997 313.93899999999996 z" stroke-linecap="round" />
</g>
</svg>