<?xml version="1.0" encoding="UTF-8" standalone="no" ?>
<!DOCTYPE svg PUBLIC "-//W3C//DTD SVG 1.1//EN" "http://www.w3.org/Graphics/SVG/1.1/DTD/svg11.dtd">
<svg xmlns="http://www.w3.org/2000/svg" xmlns:xlink="http://www.w3.org/1999/xlink" version="1.1" width="20" height="20" viewBox="0 0 46 46" xml:space="preserve">
<desc>Created with Fabric.js 5.3.0</desc>
<defs>
</defs>
<g transform="matrix(0.0875010666 0 0 0.0875010666 23 23)" id="Oareik4jesrNVK00l2v9E"  >
<filter id="SVGID_3" y="-22.16607594%" height="144.33215188%" x="-22.10654482%" width="144.21308964%" >
	<feGaussianBlur in="SourceAlpha" stdDeviation="2.5"></feGaussianBlur>
	<feOffset dx="5" dy="5" result="oBlur" ></feOffset>
	<feFlood flood-color="rgb(0,0,0)" flood-opacity="1"/>
	<feComposite in2="oBlur" operator="in" />
	<feMerge>
		<feMergeNode></feMergeNode>
		<feMergeNode in="SourceGraphic"></feMergeNode>
	</feMerge>
</filter>
<path style="stroke: none; stroke-width: 1; stroke-dasharray: none; stroke-linecap: butt; stroke-dashoffset: 0; stroke-linejoin: miter; stroke-miterlimit: 4; fill: rgb(255,255,255); fill-rule: nonzero; opacity: 1;filter: url(#SVGID_3);" vector-effect="non-scaling-stroke"  transform=" translate(-255.2205, -251.6738343279)" d="M 146.857 20.842 C 134.322 20.805999999999997 122.589 23.701999999999998 109.572 30.266 L 109.57600000000001 30.266 C 61.356 54.6 19.966 120.734 17.982 175.91 L 59.83 190.146 C 64.16 128.25599999999997 106.887 61.77599999999998 161.357 34.28599999999997 L 161.359 34.28599999999997 C 165.782 32.055999999999976 170.181 30.123999999999974 174.544 28.485999999999972 L 152.28400000000002 21.035999999999973 C 150.454 20.912999999999972 148.64700000000002 20.84599999999997 146.85600000000002 20.841999999999974 z M 206.197 41.032 C 195.719 40.94199999999999 183.365 44.125 169.773 50.974999999999994 L 169.777 50.971 C 121.547 75.31099999999999 80.15199999999999 141.484 78.22899999999998 196.407 L 234.714 249.64700000000002 C 238.579 187.42700000000002 281.51099999999997 120.275 336.327 92.61200000000002 L 336.329 92.61200000000002 L 336.331 92.60900000000002 C 340.634 90.44100000000002 344.915 88.55300000000003 349.163 86.94300000000003 L 214.62300000000002 41.907000000000025 C 211.97100000000003 41.36500000000002 209.16500000000002 41.060000000000024 206.19600000000003 41.03400000000003 z M 381.16700000000003 99.35499999999999 C 370.69100000000003 99.26499999999999 358.33700000000005 102.44699999999999 344.747 109.29499999999999 L 344.742 109.29699999999998 C 296.165 133.815 254.51700000000002 200.76999999999998 253.156 255.91999999999996 L 299.361 271.64 C 303.275 209.452 346.186 142.36599999999999 400.96799999999996 114.72 C 405.48999999999995 112.437 410.008 110.462 414.49799999999993 108.81 L 387.95399999999995 99.926 C 385.78999999999996 99.57600000000001 383.53099999999995 99.376 381.1689999999999 99.35600000000001 z M 444.721 121.36899999999999 C 434.454 121.46199999999999 422.627 124.72199999999998 409.38800000000003 131.403 C 362.23 155.203 321.61100000000005 218.99 318.02600000000007 273.153 L 492.5760000000001 199.42700000000002 C 492.1720000000001 160.41700000000003 481.82200000000006 138.12300000000002 468.16100000000006 128.34500000000003 C 465.8140000000001 126.66500000000002 463.29400000000004 125.28800000000003 460.61100000000005 124.20800000000003 L 460.60100000000006 124.24200000000003 L 455.86600000000004 122.65800000000003 C 452.386 121.77100000000003 448.67100000000005 121.33100000000003 444.72200000000004 121.36800000000002 z M 17.9 195.622 L 17.865 383.106 L 59.46 397.58 L 59.46 209.764 L 17.9 195.624 z M 78.15 216.12 L 78.15 404.082 L 234.43200000000002 458.452 L 234.43200000000002 269.288 L 205.37900000000002 259.402 L 205.37900000000002 378.832 L 104.32500000000002 344.75 L 104.32500000000002 225.025 L 78.15 216.12 z M 492.37 219.803 L 318.433 293.27 L 318.433 482.506 L 492.368 409.00199999999995 L 492.368 219.80199999999996 z M 123.01600000000002 231.385 L 123.01600000000002 331.332 L 186.69100000000003 352.80899999999997 L 186.69100000000003 253.04599999999996 L 123.01700000000002 231.38399999999996 z M 154.32200000000003 260.182 C 164.02700000000004 260.182 171.89500000000004 268.04900000000004 171.89500000000004 277.754 C 171.89500000000004 284.094 168.52500000000003 289.634 163.48800000000003 292.72400000000005 L 163.48800000000003 321.254 L 144.79800000000003 321.254 L 144.79800000000003 292.50800000000004 C 139.96000000000004 289.37800000000004 136.75000000000003 283.946 136.75000000000003 277.754 C 136.75000000000003 268.04900000000004 144.61700000000002 260.182 154.32200000000003 260.182 z M 253.11900000000003 275.646 L 253.11900000000003 464.953 L 299.745 481.173 L 299.745 291.51 L 253.118 275.646 z" stroke-linecap="round" />
</g>
</svg>