<?xml version="1.0" encoding="UTF-8" standalone="no" ?>
<!DOCTYPE svg PUBLIC "-//W3C//DTD SVG 1.1//EN" "http://www.w3.org/Graphics/SVG/1.1/DTD/svg11.dtd">
<svg xmlns="http://www.w3.org/2000/svg" xmlns:xlink="http://www.w3.org/1999/xlink" version="1.1" width="4.8215mm" height="5.3414mm" viewBox="136.64748876339883 217.8513212782845 13.667208480552745 15.141011692813695" xml:space="preserve">
<desc>Created with Fabric.js 4.6.0</desc>
<defs>
</defs>
<g transform="matrix(0.03 0 0 0.03 143.48 225.42)" id="nwqjPZkwa7Z05y4DJe1J0"  >
<filter id="SVGID_17" y="-25%" height="150%" x="-25%" width="150%" >
	<feGaussianBlur in="SourceAlpha" stdDeviation="4.25"></feGaussianBlur>
	<feOffset dx="14.17" dy="14.17" result="oBlur" ></feOffset>
	<feFlood flood-color="rgb(0,0,0)" flood-opacity="1"/>
	<feComposite in2="oBlur" operator="in" />
	<feMerge>
		<feMergeNode></feMergeNode>
		<feMergeNode in="SourceGraphic"></feMergeNode>
	</feMerge>
</filter>
<path style="stroke: none; stroke-width: 1; stroke-dasharray: none; stroke-linecap: butt; stroke-dashoffset: 0; stroke-linejoin: miter; stroke-miterlimit: 4; fill: rgb(255,255,255); fill-rule: nonzero; opacity: 1;filter: url(#SVGID_17);" vector-effect="non-scaling-stroke"  transform=" translate(0, 0)" d="M 122.09536 -235.67795 C 156.13036 -236.05795 183.15536 -216.99595000000002 197.46035999999998 -191.24595 C 212.72035999999997 -163.77895 216.12336 -136.28895 202.91835999999998 -105.71095 C 202.09535999999997 -103.80695 198.92535999999998 -91.32095 199.52335999999997 -84.60294999999999 C 200.00335999999996 -79.20694999999999 203.05335999999997 -56.82995 200.36935999999997 -55.42294999999999 C 198.93635999999998 -54.28294999999999 189.31935999999996 -73.96795 186.31335999999996 -78.75495 C 181.17735999999996 -86.93494999999999 173.41935999999995 -97.53895 178.15335999999996 -108.50094999999999 C 187.93835999999996 -131.15795 185.92335999999997 -158.47295 174.73135999999997 -178.62095 C 163.53835999999995 -198.76695 144.89135999999996 -211.81495 117.44135999999997 -209.43595 C 87.80935999999997 -206.86894999999998 71.23435999999998 -197.56394999999998 60.18435999999998 -184.63995 C 49.13435999999997 -171.71395 43.36035999999997 -153.80995000000001 40.16835999999998 -132.98795 C 33.785359999999976 -91.34595000000002 40.20835999999998 -40.38295000000001 17.76835999999998 -4.075950000000006 C 17.50835999999998 -3.655950000000006 17.22535999999998 -3.250950000000006 16.91835999999998 -2.862950000000006 L -17.619640000000018 40.951049999999995 C -21.333640000000017 41.40105 -24.449640000000016 41.47105 -26.894640000000017 41.21805 C -31.337640000000015 40.75805 -33.42464000000002 39.582049999999995 -34.937640000000016 38.00505 C -36.81164000000002 36.052049999999994 -38.267640000000014 31.91905 -38.60764000000002 25.421049999999997 C -38.57564000000002 25.43405 -38.541640000000015 25.443049999999996 -38.50964000000002 25.456049999999998 L -4.119640000000018 -18.170950000000005 C 10.206359999999982 -41.950950000000006 7.406359999999982 -90.85095000000001 14.468359999999983 -136.92695 C 18.018359999999984 -160.09395 24.686359999999983 -183.12695000000002 40.42135999999998 -201.53195 C 56.15735999999998 -219.93695 80.71135999999998 -232.35195 115.19535999999998 -235.33895 C 117.52535999999998 -235.54095 119.82535999999998 -235.65095000000002 122.09335999999998 -235.67695 z M -56.92164 22.00805 C -56.88664 22.00805 -56.851639999999996 22.01105 -56.81664 22.012050000000002 C -57.05864 33.41205 -54.91164 43.182050000000004 -47.92164 50.46705 C -43.08763999999999 55.50505 -36.24664 58.34205 -28.749639999999996 59.11905 C -23.101639999999996 59.70405 -16.949639999999995 59.28905 -10.056639999999994 58.02505 C -8.466639999999995 63.00505 -7.360639999999995 68.37705 -6.696639999999995 74.12505 C -4.674639999999995 91.58305 -6.931639999999995 112.09005 -11.640639999999994 132.68105 C -16.985639999999993 156.04905 -25.393639999999994 179.35705000000002 -33.608639999999994 198.88105000000002 C -93.27564 186.17105 -145.77164 143.73105 -183.87063999999998 82.92905000000002 C -167.34864 69.73405000000002 -146.36863999999997 54.71305000000002 -124.47763999999998 42.91705000000002 C -105.69563999999998 32.79705000000002 -86.33063999999999 25.157050000000016 -69.22163999999998 22.807050000000018 C -64.94563999999998 22.22105000000002 -60.84663999999998 21.94205000000002 -56.92363999999998 22.007050000000017 z M -197.83164 94.51205 C -158.59763999999998 156.21705 -104.22363999999999 200.98605 -41.01563999999999 215.67405000000002 C -44.17963999999999 222.51105 -47.15263999999999 228.55705000000003 -49.70363999999999 233.49805000000003 C -52.38963999999999 234.98305000000005 -56.367639999999994 235.91105000000005 -62.040639999999996 235.63505000000004 C -68.77064 235.30805000000004 -77.38463999999999 233.30805000000004 -86.86264 229.79305000000002 C -105.81764 222.76305000000002 -128.22264 209.80505000000002 -148.59064 194.30105000000003 C -168.95864 178.79805000000005 -187.36064000000002 160.67305000000005 -198.75864 143.93505000000005 C -209.59864000000002 128.01505000000006 -213.17564000000002 114.45705000000004 -210.01464 105.50105000000005 C -206.81664 102.45305000000005 -202.66764 98.69105000000005 -197.83164000000002 94.51305000000005 z" stroke-linecap="round" />
</g>
</svg>