<?xml version="1.0" encoding="UTF-8" standalone="no" ?>
<!DOCTYPE svg PUBLIC "-//W3C//DTD SVG 1.1//EN" "http://www.w3.org/Graphics/SVG/1.1/DTD/svg11.dtd">
<svg xmlns="http://www.w3.org/2000/svg" xmlns:xlink="http://www.w3.org/1999/xlink" version="1.1" width="27.000000000000004" height="25.78995" viewBox="99.03525196693217 92.8998593456299 18.00787283418541 17.20082" xml:space="preserve">
<desc>Created with Fabric.js 5.3.0</desc>
<defs>
</defs>
<g transform="matrix(0.0362279644 0 0 0.0362279652 108.039188384 101.5002693456)" id="_Kei6juFGor1eT0SmT3IR"  >
<filter id="SVGID_54" y="-25.07098756%" height="150.14197511999998%" x="-24.83036117%" width="149.66072234%" >
	<feGaussianBlur in="SourceAlpha" stdDeviation="4.252"></feGaussianBlur>
	<feOffset dx="14.173" dy="14.173" result="oBlur" ></feOffset>
	<feFlood flood-color="rgb(0,0,0)" flood-opacity="1"/>
	<feComposite in2="oBlur" operator="in" />
	<feMerge>
		<feMergeNode></feMergeNode>
		<feMergeNode in="SourceGraphic"></feMergeNode>
	</feMerge>
</filter>
<path style="stroke: none; stroke-width: 1; stroke-dasharray: none; stroke-linecap: butt; stroke-dashoffset: 0; stroke-linejoin: miter; stroke-miterlimit: 4; fill: rgb(223,193,63); fill-rule: nonzero; opacity: 1;filter: url(#SVGID_54);" vector-effect="non-scaling-stroke"  transform=" translate(-259.86, -244.1255)" d="M 222.03 20.53 L 222.03 78.78 L 165.938 99 L 172.28199999999998 116.563 L 222.03199999999998 98.625 L 222.03199999999998 194.781 L 134.87699999999998 228.626 L 141.62699999999998 246.032 L 222.033 214.81400000000002 L 222.033 356.784 L 160.378 356.784 L 158.94 349.19 L 154.253 324.127 L 95.812 324.127 L 95.812 181.657 L 155.969 159.971 L 149.624 142.376 L 95.81099999999999 161.782 L 95.81099999999999 78.345 L 77.126 78.345 L 77.126 168.53199999999998 L 25.126000000000005 187.28199999999998 L 31.470000000000006 204.84599999999998 L 77.125 188.37599999999998 L 77.125 324.126 L 26.437 324.126 C 32.002 378.52599999999995 53.764 432.20599999999996 93.219 467.721 L 375.56 467.721 C 385.103 416.176 415.39 372.575 449.248 331.281 L 449.185 331.281 L 494.594 299 L 483.781 283.75 L 416.90700000000004 331.28 L 367.25 331.28 L 367.25 219.314 L 429.438 196.876 L 423.125 179.31300000000002 L 367.25 199.47000000000003 L 367.25 132.43800000000005 L 348.562 132.43800000000005 L 348.562 206.21800000000005 L 298.625 224.21800000000005 L 304.938 241.78100000000003 L 348.563 226.03100000000003 L 348.563 347.62600000000003 L 343.656 353.47 L 340.844 356.78000000000003 L 240.72 356.78000000000003 L 240.72 207.564 L 327.875 173.72 L 321.095 156.313 L 240.71900000000002 187.53099999999998 L 240.71900000000002 91.907 L 296.779 71.687 L 290.437 54.095 L 240.717 72.032 L 240.717 20.531999999999996 L 222.03 20.531999999999996 z" stroke-linecap="round" />
</g>
</svg>