<?xml version="1.0" encoding="UTF-8" standalone="no" ?>
<!DOCTYPE svg PUBLIC "-//W3C//DTD SVG 1.1//EN" "http://www.w3.org/Graphics/SVG/1.1/DTD/svg11.dtd">
<svg xmlns="http://www.w3.org/2000/svg" xmlns:xlink="http://www.w3.org/1999/xlink" version="1.1" width="23" height="25.187679999999997" viewBox="74.64531226186936 91.9203569912235 17.49569505022672 19.159824708812803" xml:space="preserve">
<desc>Created with Fabric.js 5.3.0</desc>
<defs>
</defs>
<g transform="matrix(-0.0386711597 0 0 0.0386711597 83.393159787 101.5002693456)" id="T6sNaTC8CyImpJZEX23pU"  >
<filter id="SVGID_4" y="-22.41462849%" height="144.82925698%" x="-25.316210599999998%" width="150.6324212%" >
	<feGaussianBlur in="SourceAlpha" stdDeviation="4.252"></feGaussianBlur>
	<feOffset dx="-14.173" dy="-2.835" result="oBlur" ></feOffset>
	<feFlood flood-color="rgb(0,0,0)" flood-opacity="1"/>
	<feComposite in2="oBlur" operator="in" />
	<feMerge>
		<feMergeNode></feMergeNode>
		<feMergeNode in="SourceGraphic"></feMergeNode>
	</feMerge>
</filter>
<path style="stroke: none; stroke-width: 1; stroke-dasharray: none; stroke-linecap: butt; stroke-dashoffset: 0; stroke-linejoin: miter; stroke-miterlimit: 4; fill: rgb(223,193,63); fill-rule: nonzero; opacity: 1;filter: url(#SVGID_4);" vector-effect="non-scaling-stroke"  transform=" translate(-257.9656458857, -254.4867954172)" d="M 309.822 19.695 C 218.462 20.309 116.148 74.38900000000001 75.887 152.863 C 17.863999999999997 265.953 47.244 374.627 110.92699999999999 489.256 L 301.49699999999996 489.25399999999996 C 302.22299999999996 489.282 302.96 489.29599999999994 303.71899999999994 489.27399999999994 C 303.86099999999993 489.27199999999993 303.9989999999999 489.25899999999996 304.14199999999994 489.25399999999996 L 357.96799999999996 489.25399999999996 C 347.48199999999997 485.75199999999995 337.08599999999996 481.35999999999996 326.883 476.20699999999994 C 336.955 459.22399999999993 329.23699999999997 431.8089999999999 303.715 432.49699999999996 C 293.075 432.787 285.53499999999997 437.792 281.082 444.71899999999994 C 271.62399999999997 436.32199999999995 262.796 427.24099999999993 254.615 417.65099999999995 C 269.517 401.65799999999996 262.95 368.513 234.925 369.27099999999996 C 230.268 369.39599999999996 226.209 370.42799999999994 222.738 372.126 C 217.105 362.21599999999995 212.076 352.06899999999996 207.703 341.798 C 226.809 327.505 221.398 289.581 191.459 290.363 C 190.157 284.066 189.109 277.799 188.335 271.59 C 187.785 267.17499999999995 187.37800000000001 262.79499999999996 187.101 258.455 C 214.381 252.70799999999997 215.881 212.10799999999998 191.601 203.82 C 193.734 195.408 196.563 187.40699999999998 200.108 179.928 L 200.14600000000002 179.84799999999998 C 203.86900000000003 182.028 208.46200000000002 183.26299999999998 213.93400000000003 183.11499999999998 C 238.42900000000003 182.47299999999998 245.39400000000003 155.09499999999997 234.83800000000002 139.89999999999998 C 239.04600000000002 136.73499999999999 243.47000000000003 133.64799999999997 248.17000000000002 130.66599999999997 C 249.782 129.64299999999997 251.43 128.68599999999998 253.102 127.76899999999996 C 255.238 138.80899999999997 263.61 148.26399999999995 278.228 147.86899999999997 C 297.588 147.36299999999997 305.996 130.14399999999998 303.458 115.44599999999997 C 314.158 114.92599999999997 324.148 115.84599999999998 333.24600000000004 117.92099999999996 C 329.982 130.98099999999997 337.016 146.77099999999996 354.35200000000003 146.30099999999996 C 362.196 146.09599999999995 367.92800000000005 142.67099999999996 371.555 137.78799999999995 C 372.945 139.14599999999996 374.257 140.55099999999996 375.482 141.99599999999995 C 380.57500000000005 148.00599999999994 384.26700000000005 154.67999999999995 386.39200000000005 161.88899999999995 C 370.20500000000004 167.11699999999996 369.5640000000001 191.86199999999997 384.47200000000004 197.82099999999997 C 381.425 205.97499999999997 376.51500000000004 214.45099999999996 369.39400000000006 223.02399999999997 C 366.9920000000001 220.25699999999998 363.3740000000001 218.45999999999998 358.53400000000005 218.59099999999998 C 344.59100000000007 218.97099999999998 340.77000000000004 234.75699999999998 347.05400000000003 243.20399999999998 C 340.002 247.74699999999999 333.374 250.57 327.34200000000004 252.06399999999996 C 327.98800000000006 246.06599999999997 324.439 239.63599999999997 316.67600000000004 239.84399999999997 C 309.34800000000007 240.04399999999995 305.77600000000007 245.95199999999997 305.939 251.62799999999996 C 305.694 251.53799999999995 305.446 251.44999999999996 305.206 251.35499999999996 C 301.312 249.22999999999996 297.68 245.97499999999997 294.43600000000004 241.26499999999996 C 304.43600000000004 238.31499999999997 304.59600000000006 222.76499999999996 294.89400000000006 219.95499999999996 C 296.30800000000005 216.75799999999995 298.3040000000001 213.37299999999996 300.99100000000004 209.86099999999996 C 303.50700000000006 211.53099999999995 307.54400000000004 212.65599999999995 313.124 212.58099999999996 C 325.68600000000004 212.42099999999996 330.47400000000005 206.41099999999997 327.511 201.90099999999995 C 327.541 201.90499999999994 327.569 201.90599999999995 327.59900000000005 201.90799999999996 C 327.54300000000006 201.86099999999996 327.48600000000005 201.81799999999996 327.43100000000004 201.77099999999996 C 326.62600000000003 200.61299999999997 325.29900000000004 199.56099999999995 323.456 198.74099999999996 C 313.966 192.29599999999996 302.85 189.96299999999997 292.726 191.44299999999996 L 292.436 191.16799999999995 C 292.316 191.29399999999995 292.20599999999996 191.42099999999994 292.08599999999996 191.54799999999994 C 271.55899999999997 194.88799999999995 255.37799999999996 213.99599999999995 265.69199999999995 246.29799999999994 C 303.9669999999999 366.16799999999995 508.04599999999994 264.63399999999996 465.42499999999995 134.74799999999993 C 439.24199999999996 54.95299999999993 386.06199999999995 20.554999999999936 314.16299999999995 19.694999999999936 L 314.16299999999995 19.704999999999938 C 312.71899999999994 19.68799999999994 311.27099999999996 19.68499999999994 309.82099999999997 19.692999999999937 z M 320.82 74.10499999999999 C 335.062 74.41999999999999 340.183 88.695 336.195 99.37499999999999 C 327.252 97.44999999999999 317.721 96.48699999999998 307.74 96.61099999999999 C 305.938 96.63499999999999 304.12 96.698 302.29 96.791 C 300.415 86.569 306.223 74.483 319.72700000000003 74.11099999999999 C 320.09700000000004 74.10099999999998 320.461 74.09899999999999 320.82000000000005 74.106 z M 231.158 93.78299999999999 C 241.41799999999998 94.00999999999999 246.93499999999997 101.48499999999999 247.736 109.63899999999998 C 236.92399999999998 114.33099999999999 227.232 120.18899999999998 218.648 127.01299999999998 C 207.328 117.86699999999998 211.121 94.29299999999998 230.064 93.78599999999997 C 230.434 93.77599999999997 230.799 93.77399999999997 231.158 93.78199999999997 z M 399.52 117.52 C 420.44 117.98299999999999 421.697 148.576 403.27299999999997 153.63 C 400.30299999999994 144.99 395.717 136.966 389.743 129.916 C 388.103 127.98299999999999 386.367 126.121 384.537 124.332 C 387.489 120.42599999999999 392.11499999999995 117.692 398.42699999999996 117.52199999999999 C 398.79699999999997 117.51199999999999 399.16099999999994 117.51199999999999 399.52 117.52 z M 178.60699999999997 165.43599999999998 C 181.29499999999996 165.49599999999998 183.65299999999996 166.05599999999998 185.69099999999997 166.992 C 184.83799999999997 168.618 184.01099999999997 170.262 183.22399999999996 171.92399999999998 C 178.74399999999997 181.37199999999999 175.30099999999996 191.39 172.82699999999997 201.832 C 153.92199999999997 197.83599999999998 155.46899999999997 166.028 177.51499999999996 165.438 C 177.88499999999996 165.428 178.24899999999997 165.428 178.60799999999995 165.43599999999998 z M 402.83399999999995 202.00199999999998 C 420.02799999999996 207.42199999999997 417.9239999999999 237.41499999999996 396.53099999999995 237.97199999999998 C 391.4669999999999 238.10899999999998 387.49099999999993 236.53499999999997 384.59099999999995 233.97199999999998 C 393.10799999999995 223.492 399.16099999999994 212.73399999999998 402.8349999999999 202.00199999999998 z M 164.51 255.506 C 165.22299999999998 255.522 165.91299999999998 255.573 166.588 255.646 C 167.13299999999998 255.96599999999998 167.694 256.264 168.273 256.543 C 168.565 262.288 169.067 268.077 169.791 273.898 C 170.739 281.50800000000004 172.077 289.173 173.737 296.855 C 173.097 297.41 172.49099999999999 297.995 171.91299999999998 298.605 C 169.373 299.701 166.46599999999998 300.368 163.17499999999998 300.45300000000003 C 134.20299999999997 301.233 134.207 256.295 163.17299999999997 255.51000000000005 C 163.62499999999997 255.49800000000005 164.07299999999998 255.49600000000004 164.51099999999997 255.50600000000006 z M 357.813 258.459 C 361.746 267.183 357.409 280.135 344.801 280.466 C 337.111 280.67400000000004 332.508 276.023 330.971 270.339 C 339.636 268.279 348.709 264.367 357.813 258.459 z M 187.503 347.011 C 188.178 347.07300000000004 188.863 347.12100000000004 189.563 347.141 C 195.197 360.69300000000004 201.879 374.028 209.56099999999998 386.93100000000004 C 209.51799999999997 387.04600000000005 209.47699999999998 387.16100000000006 209.43499999999997 387.278 C 205.73299999999998 390.69 200.69099999999997 392.934 194.27799999999996 393.1 C 166.33599999999996 393.85200000000003 164.08499999999995 354.08700000000005 187.50499999999997 347.01 z M 237.027 425.925 C 248.617 439.935 261.525 453.00100000000003 275.682 464.725 C 271.24600000000004 471.749 263.665 476.83700000000005 252.93 477.115 C 223.15 477.921 217.618 440.495 236.303 425.981 C 236.546 425.965 236.787 425.94599999999997 237.027 425.925 z" stroke-linecap="round" />
</g>
</svg>